<svg width="49" height="49" viewBox="0 0 49 49" fill="none" xmlns="http://www.w3.org/2000/svg">
<rect width="49" height="48.6667" rx="3" fill="#171717"/>
<g clip-path="url(#clip0_14_69)">
<path d="M27.8958 23.1562L22.2708 21.5104C21.6198 21.3229 21.1667 20.7135 21.1667 20.0365C21.1667 19.1875 21.8542 18.5 22.7031 18.5H26.1562C26.7917 18.5 27.4167 18.6927 27.9375 19.0469C28.2552 19.2604 28.6823 19.2083 28.9531 18.9427L30.7656 17.1719C31.1354 16.8125 31.0833 16.2135 30.6719 15.8958C29.3958 14.8958 27.8021 14.3385 26.1667 14.3333V11.8333C26.1667 11.375 25.7917 11 25.3333 11H23.6667C23.2083 11 22.8333 11.375 22.8333 11.8333V14.3333H22.7031C19.3854 14.3333 16.7187 17.1823 17.026 20.5625C17.2448 22.9635 19.0781 24.9167 21.3906 25.5938L26.7292 27.1563C27.3802 27.349 27.8333 27.9531 27.8333 28.6302C27.8333 29.4792 27.1458 30.1667 26.2969 30.1667H22.8437C22.2083 30.1667 21.5833 29.974 21.0625 29.6198C20.7448 29.4062 20.3177 29.4583 20.0469 29.724L18.2344 31.4948C17.8646 31.8542 17.9167 32.4531 18.3281 32.7708C19.6042 33.7708 21.1979 34.3281 22.8333 34.3333V36.8333C22.8333 37.2917 23.2083 37.6667 23.6667 37.6667H25.3333C25.7917 37.6667 26.1667 37.2917 26.1667 36.8333V34.3229C28.5937 34.276 30.8698 32.8333 31.6719 30.5365C32.7917 27.3281 30.9115 24.0365 27.8958 23.1562Z" fill="white"/>
</g>
<defs>
<clipPath id="clip0_14_69">
<rect width="15" height="26.6667" fill="white" transform="translate(17 11)"/>
</clipPath>
</defs>
</svg>
