<svg width="50" height="50" viewBox="0 0 50 50" fill="none" xmlns="http://www.w3.org/2000/svg">
<rect width="50" height="50" rx="3" fill="#171717"/>
<path d="M34.78 19.78C34.8848 19.6751 34.9561 19.5415 34.985 19.3961C35.0138 19.2507 34.999 19.1 34.9423 18.9631C34.8856 18.8261 34.7895 18.709 34.6663 18.6266C34.5431 18.5442 34.3982 18.5001 34.25 18.5H31.5V15.75C31.4999 15.6018 31.4558 15.4569 31.3734 15.3337C31.291 15.2104 31.1739 15.1144 31.0369 15.0577C30.9 15.001 30.7493 14.9861 30.6039 15.015C30.4585 15.0439 30.3249 15.1152 30.22 15.22L27.72 17.72C27.5793 17.8605 27.5002 18.0511 27.5 18.25V21.086L25.518 23.068C25.2217 22.9892 24.9112 22.9794 24.6105 23.0395C24.3098 23.0996 24.027 23.2279 23.7837 23.4145C23.5404 23.6012 23.3433 23.8412 23.2074 24.1161C23.0715 24.391 23.0006 24.6934 23 25C23.0001 25.2846 23.061 25.5659 23.1786 25.8252C23.2961 26.0844 23.4677 26.3155 23.6817 26.5031C23.8958 26.6907 24.1474 26.8305 24.4198 26.9131C24.6922 26.9956 24.979 27.0191 25.2612 26.9819C25.5434 26.9448 25.8144 26.8478 26.0561 26.6975C26.2978 26.5472 26.5047 26.347 26.6628 26.1104C26.821 25.8737 26.9268 25.6061 26.9732 25.3253C27.0196 25.0444 27.0056 24.7569 26.932 24.482L28.914 22.5H31.75C31.9488 22.4998 32.1395 22.4207 32.28 22.28L34.78 19.78ZM25 15C26.1677 14.9985 27.3266 15.2019 28.424 15.601L27.012 17.013C26.95 17.075 26.892 17.143 26.841 17.213C25.147 16.8129 23.3687 16.9762 21.7759 17.6782C20.1831 18.3802 18.8627 19.5825 18.015 21.1027C17.1673 22.623 16.8386 24.3782 17.0787 26.1022C17.3187 27.8262 18.1145 29.4248 19.3453 30.6557C20.5761 31.8865 22.1748 32.6823 23.8988 32.9223C25.6228 33.1624 27.378 32.8337 28.8983 31.986C30.4185 31.1383 31.6208 29.8179 32.3228 28.2251C33.0248 26.6323 33.1881 24.854 32.788 23.16C32.858 23.108 32.925 23.05 32.988 22.988L34.398 21.576C34.7974 22.6733 35.0012 23.8322 35 25C35 30.523 30.523 35 25 35C19.477 35 15 30.523 15 25C15 19.477 19.477 15 25 15ZM25 19C25.518 19 26.02 19.066 26.5 19.19V20.672L26.086 21.086C26.0694 21.1024 26.053 21.119 26.037 21.136C25.4443 20.9779 24.8232 20.9581 24.2216 21.0781C23.62 21.1981 23.054 21.4547 22.5673 21.8281C22.0806 22.2014 21.6862 22.6816 21.4144 23.2316C21.1427 23.7815 21.0009 24.3866 21 25C21.0004 25.5692 21.1223 26.1318 21.3575 26.6501C21.5927 27.1685 21.9359 27.6306 22.364 28.0057C22.7921 28.3808 23.2954 28.6603 23.8401 28.8253C24.3849 28.9904 24.9586 29.0372 25.5229 28.9628C26.0873 28.8884 26.6292 28.6944 27.1126 28.3938C27.5959 28.0932 28.0095 27.6928 28.3258 27.2196C28.642 26.7463 28.8537 26.211 28.9465 25.6494C29.0393 25.0878 29.0112 24.5129 28.864 23.963L28.914 23.914L29.328 23.5H30.811C31.1238 24.7115 31.05 25.9905 30.6 27.1581C30.1499 28.3256 29.3461 29.3232 28.3011 30.0113C27.256 30.6994 26.0219 31.0435 24.7716 30.9956C23.5213 30.9476 22.3172 30.51 21.3279 29.7439C20.3386 28.9778 19.6135 27.9215 19.2542 26.723C18.8949 25.5244 18.9193 24.2435 19.324 23.0595C19.7287 21.8755 20.4934 20.8476 21.5111 20.1197C22.5289 19.3918 23.7487 19.0003 25 19Z" fill="white"/>
</svg>
