<svg width="149" height="47" viewBox="0 0 149 47" fill="none" xmlns="http://www.w3.org/2000/svg">
<circle cx="22" cy="22" r="12" fill="#171717"/>
<circle cx="28" cy="30.6667" r="5.5" fill="#EDEDFE" stroke="#171717"/>
<path d="M45.946 25.6174H48.1051L49.625 27.599L50.3423 28.4797L52.7642 31.6402H50.5199L48.9006 29.5308L48.3466 28.7637L45.946 25.6174ZM53.233 23.0606C53.233 24.6136 52.9489 25.9489 52.3807 27.0663C51.8125 28.179 51.0336 29.036 50.044 29.6373C49.0592 30.2339 47.9394 30.5322 46.6847 30.5322C45.4252 30.5322 44.3007 30.2339 43.3111 29.6373C42.3262 29.036 41.5497 28.1766 40.9815 27.0592C40.4134 25.9418 40.1293 24.6089 40.1293 23.0606C40.1293 21.5076 40.4134 20.1747 40.9815 19.062C41.5497 17.9446 42.3262 17.0876 43.3111 16.491C44.3007 15.8897 45.4252 15.589 46.6847 15.589C47.9394 15.589 49.0592 15.8897 50.044 16.491C51.0336 17.0876 51.8125 17.9446 52.3807 19.062C52.9489 20.1747 53.233 21.5076 53.233 23.0606ZM51.0597 23.0606C51.0597 21.8769 50.8679 20.8802 50.4844 20.0706C50.1056 19.2562 49.5848 18.6406 48.9219 18.224C48.2637 17.8026 47.518 17.5919 46.6847 17.5919C45.8466 17.5919 45.0985 17.8026 44.4403 18.224C43.7822 18.6406 43.2614 19.2562 42.8778 20.0706C42.4991 20.8802 42.3097 21.8769 42.3097 23.0606C42.3097 24.2443 42.4991 25.2434 42.8778 26.0578C43.2614 26.8674 43.7822 27.483 44.4403 27.9044C45.0985 28.321 45.8466 28.5294 46.6847 28.5294C47.518 28.5294 48.2637 28.321 48.9219 27.9044C49.5848 27.483 50.1056 26.8674 50.4844 26.0578C50.8679 25.2434 51.0597 24.2443 51.0597 23.0606ZM62.7092 25.8092V19.4243H64.8398V30.3333H62.7518V28.4441H62.6381C62.3872 29.0265 61.9847 29.5118 61.4308 29.9001C60.8815 30.2836 60.1973 30.4754 59.3782 30.4754C58.6774 30.4754 58.0572 30.3215 57.5174 30.0137C56.9824 29.7012 56.561 29.2396 56.2532 28.6288C55.9502 28.018 55.7987 27.2628 55.7987 26.3632V19.4243H57.9222V26.1075C57.9222 26.8509 58.1282 27.4427 58.5401 27.8831C58.9521 28.3234 59.4871 28.5436 60.1452 28.5436C60.543 28.5436 60.9383 28.4441 61.3313 28.2453C61.729 28.0464 62.0581 27.7457 62.3185 27.3433C62.5837 26.9408 62.7139 26.4295 62.7092 25.8092ZM67.6932 30.3333V19.4243H69.8168V30.3333H67.6932ZM68.7656 17.741C68.3963 17.741 68.0791 17.6179 67.8139 17.3717C67.5535 17.1207 67.4233 16.8225 67.4233 16.4768C67.4233 16.1264 67.5535 15.8281 67.8139 15.5819C68.0791 15.331 68.3963 15.2055 68.7656 15.2055C69.1349 15.2055 69.4498 15.331 69.7102 15.5819C69.9754 15.8281 70.108 16.1264 70.108 16.4768C70.108 16.8225 69.9754 17.1207 69.7102 17.3717C69.4498 17.6179 69.1349 17.741 68.7656 17.741ZM77.3754 30.5535C76.3005 30.5535 75.3749 30.3239 74.5984 29.8646C73.8266 29.4006 73.23 28.7495 72.8086 27.9115C72.3919 27.0687 72.1836 26.0814 72.1836 24.9498C72.1836 23.8324 72.3919 22.8475 72.8086 21.9953C73.23 21.143 73.8171 20.4778 74.57 19.9995C75.3275 19.5213 76.2129 19.2822 77.2262 19.2822C77.8417 19.2822 78.4383 19.384 79.016 19.5876C79.5936 19.7912 80.1121 20.1108 80.5714 20.5464C81.0307 20.982 81.3929 21.5478 81.658 22.2439C81.9232 22.9351 82.0558 23.7756 82.0558 24.7652V25.518H73.3839V23.9271H79.9748C79.9748 23.3684 79.8612 22.8736 79.6339 22.4427C79.4066 22.0071 79.087 21.6638 78.6751 21.4129C78.2679 21.1619 77.7897 21.0365 77.2404 21.0365C76.6438 21.0365 76.123 21.1832 75.6779 21.4768C75.2376 21.7656 74.8967 22.1444 74.6552 22.6132C74.4184 23.0772 74.3001 23.5814 74.3001 24.126V25.3689C74.3001 26.098 74.4279 26.7183 74.6836 27.2297C74.944 27.741 75.3062 28.1316 75.7702 28.4015C76.2343 28.6667 76.7764 28.7993 77.3967 28.7993C77.7991 28.7993 78.1661 28.7424 78.4975 28.6288C78.829 28.5104 79.1154 28.3352 79.3569 28.1032C79.5984 27.8712 79.783 27.5848 79.9109 27.2439L81.9208 27.6061C81.7598 28.1979 81.471 28.7164 81.0543 29.1615C80.6424 29.6018 80.1239 29.9451 79.4989 30.1913C78.8787 30.4328 78.1708 30.5535 77.3754 30.5535ZM86.5355 15.7879V30.3333H84.4119V15.7879H86.5355ZM94.0941 30.5535C93.0193 30.5535 92.0936 30.3239 91.3171 29.8646C90.5453 29.4006 89.9487 28.7495 89.5273 27.9115C89.1107 27.0687 88.9023 26.0814 88.9023 24.9498C88.9023 23.8324 89.1107 22.8475 89.5273 21.9953C89.9487 21.143 90.5359 20.4778 91.2887 19.9995C92.0463 19.5213 92.9317 19.2822 93.945 19.2822C94.5605 19.2822 95.1571 19.384 95.7347 19.5876C96.3124 19.7912 96.8308 20.1108 97.2901 20.5464C97.7494 20.982 98.1116 21.5478 98.3768 22.2439C98.6419 22.9351 98.7745 23.7756 98.7745 24.7652V25.518H90.1026V23.9271H96.6935C96.6935 23.3684 96.5799 22.8736 96.3526 22.4427C96.1254 22.0071 95.8058 21.6638 95.3938 21.4129C94.9866 21.1619 94.5084 21.0365 93.9592 21.0365C93.3626 21.0365 92.8417 21.1832 92.3967 21.4768C91.9563 21.7656 91.6154 22.1444 91.3739 22.6132C91.1372 23.0772 91.0188 23.5814 91.0188 24.126V25.3689C91.0188 26.098 91.1467 26.7183 91.4023 27.2297C91.6628 27.741 92.025 28.1316 92.489 28.4015C92.953 28.6667 93.4951 28.7993 94.1154 28.7993C94.5179 28.7993 94.8848 28.7424 95.2163 28.6288C95.5477 28.5104 95.8342 28.3352 96.0756 28.1032C96.3171 27.8712 96.5018 27.5848 96.6296 27.2439L98.6396 27.6061C98.4786 28.1979 98.1897 28.7164 97.7731 29.1615C97.3612 29.6018 96.8427 29.9451 96.2177 30.1913C95.5974 30.4328 94.8896 30.5535 94.0941 30.5535ZM102.53 30.3333H100.2L105.435 15.7879H107.97L113.205 30.3333H110.875L106.763 18.4299H106.649L102.53 30.3333ZM102.92 24.6373H110.477V26.4839H102.92V24.6373ZM115.135 34.4243V19.4243H117.208V21.1927H117.386C117.509 20.9654 117.687 20.7027 117.919 20.4044C118.151 20.1061 118.473 19.8457 118.885 19.6231C119.297 19.3958 119.841 19.2822 120.518 19.2822C121.399 19.2822 122.185 19.5047 122.876 19.9498C123.567 20.3949 124.109 21.0365 124.502 21.8745C124.9 22.7126 125.099 23.7211 125.099 24.9001C125.099 26.0791 124.903 27.09 124.51 27.9328C124.117 28.7708 123.577 29.4172 122.89 29.8717C122.204 30.3215 121.42 30.5464 120.539 30.5464C119.877 30.5464 119.334 30.4351 118.913 30.2126C118.496 29.9901 118.17 29.7297 117.933 29.4314C117.696 29.1331 117.514 28.8679 117.386 28.6359H117.258V34.4243H115.135ZM117.216 24.8788C117.216 25.6458 117.327 26.3182 117.549 26.8958C117.772 27.4735 118.094 27.9257 118.515 28.2524C118.937 28.5743 119.453 28.7353 120.064 28.7353C120.698 28.7353 121.228 28.5672 121.654 28.2311C122.081 27.8902 122.403 27.4285 122.62 26.8461C122.843 26.2637 122.954 25.608 122.954 24.8788C122.954 24.1591 122.845 23.5128 122.627 22.9399C122.414 22.367 122.092 21.9148 121.662 21.5833C121.235 21.2519 120.703 21.0862 120.064 21.0862C119.448 21.0862 118.927 21.2448 118.501 21.562C118.08 21.8793 117.76 22.322 117.542 22.8902C117.324 23.4583 117.216 24.1212 117.216 24.8788ZM127.478 34.4243V19.4243H129.552V21.1927H129.73C129.853 20.9654 130.03 20.7027 130.262 20.4044C130.494 20.1061 130.816 19.8457 131.228 19.6231C131.64 19.3958 132.185 19.2822 132.862 19.2822C133.743 19.2822 134.529 19.5047 135.22 19.9498C135.911 20.3949 136.453 21.0365 136.846 21.8745C137.244 22.7126 137.443 23.7211 137.443 24.9001C137.443 26.0791 137.246 27.09 136.853 27.9328C136.46 28.7708 135.921 29.4172 135.234 29.8717C134.547 30.3215 133.764 30.5464 132.883 30.5464C132.22 30.5464 131.678 30.4351 131.257 30.2126C130.84 29.9901 130.513 29.7297 130.277 29.4314C130.04 29.1331 129.858 28.8679 129.73 28.6359H129.602V34.4243H127.478ZM129.559 24.8788C129.559 25.6458 129.671 26.3182 129.893 26.8958C130.116 27.4735 130.438 27.9257 130.859 28.2524C131.28 28.5743 131.797 28.7353 132.407 28.7353C133.042 28.7353 133.572 28.5672 133.998 28.2311C134.424 27.8902 134.746 27.4285 134.964 26.8461C135.187 26.2637 135.298 25.608 135.298 24.8788C135.298 24.1591 135.189 23.5128 134.971 22.9399C134.758 22.367 134.436 21.9148 134.005 21.5833C133.579 21.2519 133.047 21.0862 132.407 21.0862C131.792 21.0862 131.271 21.2448 130.845 21.562C130.423 21.8793 130.104 22.322 129.886 22.8902C129.668 23.4583 129.559 24.1212 129.559 24.8788Z" fill="black"/>
</svg>
