<svg width="24" height="25" viewBox="0 0 24 25" fill="none" xmlns="http://www.w3.org/2000/svg">
<path d="M21.9 19.2533L21.6733 19.0533C21.0303 18.4804 20.4674 17.8234 20 17.1C19.4895 16.1017 19.1835 15.0115 19.1 13.8933V10.6C19.1044 8.84373 18.4674 7.1463 17.3085 5.82663C16.1496 4.50697 14.5488 3.65589 12.8067 3.43332V2.57332C12.8067 2.33728 12.7129 2.1109 12.546 1.94399C12.3791 1.77709 12.1527 1.68332 11.9167 1.68332C11.6806 1.68332 11.4543 1.77709 11.2873 1.94399C11.1204 2.1109 11.0267 2.33728 11.0267 2.57332V3.44665C9.30018 3.68527 7.71865 4.54149 6.57503 5.85672C5.4314 7.17196 4.80316 8.85708 4.80667 10.6V13.8933C4.72318 15.0115 4.41719 16.1017 3.90667 17.1C3.44726 17.8216 2.89347 18.4785 2.26001 19.0533L2.03334 19.2533V21.1333H21.9V19.2533Z" fill="black"/>
<path d="M10.2133 21.8333C10.2718 22.2559 10.4812 22.6431 10.8029 22.9233C11.1245 23.2035 11.5367 23.3579 11.9633 23.3579C12.3899 23.3579 12.8021 23.2035 13.1238 22.9233C13.4455 22.6431 13.6549 22.2559 13.7133 21.8333H10.2133Z" fill="black"/>
</svg>
